<svg xmlns="http://www.w3.org/2000/svg" viewBox="0 0 15.97 12.2">
    <path class="st0" d="M13.57 1.1a13.2 13.2 0 0 0-3.2-1.1l-.5.9a12.2 12.2 0 0 0-3.6 0 8 8 0 0 0-.4-.9c-1.2.2-2.3.5-3.3 1a12.9 12.9 0 0 0-2.5 9.1 13.3 13.3 0 0 0 4 2l.9-1.3a9 9 0 0 1-1.3-.6v-.1l.2-.2a9.5 9.5 0 0 0 8.1 0l.3.2a8 8 0 0 1-1.2.7l.8 1.4a13.2 13.2 0 0 0 4-2c.4-3.5-.5-6.5-2.3-9.2m-8.3 7.3c-.7 0-1.4-.7-1.4-1.6 0-.9.7-1.6 1.5-1.6.9 0 1.5.7 1.5 1.6 0 .9-.7 1.6-1.5 1.6m5.4 0c-.8 0-1.5-.7-1.5-1.6 0-.9.8-1.6 1.5-1.6s1.4.7 1.4 1.6c0 .9-.6 1.6-1.4 1.6" style="fill:#fff"/>
</svg>