<svg xmlns="http://www.w3.org/2000/svg" viewBox="0 0 22.94 22.43">
    <path class="st0" fill="#fff" d="M11.5 0a11.5 11.5 0 0 0-3.64 22.41c.58.1.8-.24.8-.55l-.02-2.14c-2.89.53-3.64-.7-3.87-1.35-.13-.33-.69-1.35-1.18-1.62-.4-.22-.97-.75 0-.77.9 0 1.54.84 1.76 1.18 1.03 1.74 2.7 1.25 3.35.95.1-.75.4-1.25.73-1.54-2.56-.28-5.23-1.28-5.23-5.67 0-1.25.44-2.29 1.18-3.1a4.14 4.14 0 0 1 .11-3.04s.96-.3 3.16 1.18a10.66 10.66 0 0 1 5.75 0c2.2-1.5 3.17-1.18 3.17-1.18.63 1.58.23 2.76.11 3.05.73.8 1.18 1.82 1.18 3.09 0 4.4-2.69 5.39-5.25 5.67.42.36.78 1.05.78 2.13l-.02 3.16c0 .3.22.67.8.55A11.52 11.52 0 0 0 11.5 0Z"/>
</svg>