<svg xmlns="http://www.w3.org/2000/svg" viewBox="0 0 60.3 53.2">
    <path class="st0" d="M60.2 27a6.6 6.6 0 0 0-11-4.5A32 32 0 0 0 31.8 17l2.9-14 9.6 2a4.5 4.5 0 1 0 .6-2.8L33.9 0c-.8-.2-1.5.3-1.7 1l-3.3 15.7c-6.3 0-12.4 2-17.6 5.5A6.6 6.6 0 1 0 4.2 33v2c0 10 11.8 18.2 26.2 18.2 14.5 0 26.3-8 26.3-18.2v-2a6.6 6.6 0 0 0 3.6-6zm-45 4.5a4.5 4.5 0 0 1 9 0 4.5 4.5 0 0 1-9 0zm26.2 12.6V44a17.3 17.3 0 0 1-11.2 3.4c-4 .2-8-1-11-3.4-.5-.5-.4-1.3 0-1.7.5-.4 1.2-.4 1.6 0 2.7 2 6 3 9.4 2.8a15 15 0 0 0 9.4-2.7c.5-.5 1.3-.5 1.8 0s.4 1.3 0 1.8zm-.7-7.8h-.2a4.5 4.5 0 0 1 0-9c2.5 0 4.6 2 4.6 4.4a4.5 4.5 0 0 1-4.4 4.6z" style="fill:#fff"/>
</svg>