<svg xmlns="http://www.w3.org/2000/svg" viewBox="0 -4 48 48">
    <path class="st0" fill="#fff" d="M48 4.74a19.2 19.2 0 0 1-5.65 1.58A10.08 10.08 0 0 0 46.68.74c-1.9 1.16-4.01 2-6.26 2.45A9.71 9.71 0 0 0 33.23 0a9.97 9.97 0 0 0-9.84 10.1c0 .79.08 1.56.25 2.3A27.73 27.73 0 0 1 3.34 1.84 10.28 10.28 0 0 0 6.4 15.33a9.67 9.67 0 0 1-4.46-1.26v.12c0 4.9 3.4 8.98 7.9 9.9a9.39 9.39 0 0 1-4.45.18 9.89 9.89 0 0 0 9.2 7.01A19.44 19.44 0 0 1 0 35.47 27.42 27.42 0 0 0 15.1 40c18.1 0 28-15.38 28-28.73 0-.44 0-.88-.02-1.3A20.45 20.45 0 0 0 48 4.73"/>
</svg>