<svg width="410" height="182" viewBox="0 0 410 182" fill="none" xmlns="http://www.w3.org/2000/svg">
<g opacity="0.3">
<path opacity="0.6" d="M59.8537 165.466L57.3529 167.966M47.3476 177.97L44.8467 180.471M59.8537 180.471L57.3529 177.97M47.3476 167.967L44.8467 165.466M211.969 2.12015L209.468 4.62062M199.463 14.6243L196.962 17.1247M211.969 17.1253L209.468 14.6248M199.463 4.62098L196.962 2.12051M387.395 152.459V163.069M392.701 157.764H382.09M123.919 149.93L121.418 147.429M111.413 137.425L108.912 134.925M123.919 134.924L121.418 137.425M111.413 147.429L108.912 149.929M352.023 12.7038V2.09363M357.329 7.39873H346.717M59.728 48.7368V38.1266M65.0338 43.4317H54.4221M336.784 145.781V135.171M342.09 140.476H331.478M362.854 73.4658L360.353 75.9663M350.348 85.9701L347.847 88.4706M362.854 88.4709L360.353 85.9705M350.348 75.9666L347.847 73.4662M408.074 66.4661C408.074 63.5359 405.699 61.161 402.768 61.161C399.837 61.161 397.462 63.5359 397.462 66.4661C397.462 69.3963 399.837 71.7712 402.768 71.7712C405.699 71.7712 408.074 69.3963 408.074 66.4661ZM12.7708 91.7712C12.7708 88.841 10.3955 86.4661 7.46488 86.4661C4.53426 86.4661 2.159 88.841 2.159 91.7712C2.159 94.7014 4.53426 97.0763 7.46488 97.0763C10.3955 97.0763 12.7708 94.7014 12.7708 91.7712ZM280.771 20.7712C280.771 17.841 278.395 15.4661 275.465 15.4661C272.534 15.4661 270.159 17.841 270.159 20.7712C270.159 23.7014 272.534 26.0763 275.465 26.0763C278.395 26.0763 280.771 23.7014 280.771 20.7712Z" stroke="white" stroke-width="3" stroke-linecap="round" stroke-linejoin="round"/>
</g>
<path d="M164 49C161.791 49 160 50.7909 160 53V166.612C160 168.821 161.791 170.612 164 170.612H312.431C314.64 170.612 316.431 168.821 316.431 166.612V53C316.431 50.7909 314.64 49 312.431 49H164ZM296.003 77.5221C296.003 79.7313 294.213 81.5221 292.003 81.5221H287.888C285.679 81.5221 283.888 79.7313 283.888 77.5221V73.4066C283.888 71.1974 285.679 69.4066 287.888 69.4066H292.003C294.213 69.4066 296.003 71.1974 296.003 73.4066V77.5221Z" fill="#1F1F22"/>
<path d="M238.955 149.732V28.6957L128.082 28.6957V149.732H238.955Z" fill="#1F1F22"/>
<path d="M129 26H238.037C240.798 26 243.037 28.2386 243.037 31V67.045C243.037 69.8065 240.798 72.045 238.037 72.045H129C126.239 72.045 124 69.8065 124 67.045V31C124 28.2386 126.239 26 129 26Z" fill="#515255" stroke="#1F1F22" stroke-width="2"/>
<path d="M129 79.5886H238.037C240.798 79.5886 243.037 81.8272 243.037 84.5886V120.634C243.037 123.395 240.798 125.634 238.037 125.634H129C126.239 125.634 124 123.395 124 120.634V84.5886C124 81.8272 126.239 79.5886 129 79.5886Z" fill="#515255" stroke="#1F1F22" stroke-width="2"/>
<path d="M129 133.177H238.037C240.798 133.177 243.037 135.416 243.037 138.177V174.222C243.037 176.984 240.798 179.222 238.037 179.222H129C126.239 179.222 124 176.984 124 174.222V138.177C124 135.416 126.239 133.177 129 133.177Z" fill="#515255" stroke="#1F1F22" stroke-width="2"/>
<path d="M235 45H130C127.791 45 126 46.7909 126 49C126 51.2091 127.791 53 130 53H235C237.209 53 239 51.2091 239 49C239 46.7909 237.209 45 235 45Z" fill="#838383"/>
<path d="M235.5 99H129.5C127.567 99 126 100.567 126 102.5C126 104.433 127.567 106 129.5 106H235.5C237.433 106 239 104.433 239 102.5C239 100.567 237.433 99 235.5 99Z" fill="#838383"/>
<path d="M235 152H130C127.791 152 126 153.791 126 156C126 158.209 127.791 160 130 160H235C237.209 160 239 158.209 239 156C239 153.791 237.209 152 235 152Z" fill="#838383"/>
<path opacity="0.5" d="M171.5 56H128.5C127.119 56 126 57.1193 126 58.5C126 59.8807 127.119 61 128.5 61H171.5C172.881 61 174 59.8807 174 58.5C174 57.1193 172.881 56 171.5 56Z" fill="#838383"/>
<path opacity="0.5" d="M171.5 110H128.5C127.119 110 126 111.119 126 112.5C126 113.881 127.119 115 128.5 115H171.5C172.881 115 174 113.881 174 112.5C174 111.119 172.881 110 171.5 110Z" fill="#838383"/>
<path opacity="0.5" d="M171.5 163H128.5C127.119 163 126 164.119 126 165.5C126 166.881 127.119 168 128.5 168H171.5C172.881 168 174 166.881 174 165.5C174 164.119 172.881 163 171.5 163Z" fill="#838383"/>
<path opacity="0.5" d="M216.78 37.6123C218.311 37.6123 219.552 36.3713 219.552 34.8405C219.552 33.3097 218.311 32.0687 216.78 32.0687C215.25 32.0687 214.009 33.3097 214.009 34.8405C214.009 36.3713 215.25 37.6123 216.78 37.6123Z" fill="#838383"/>
<path opacity="0.7" d="M226.482 37.6123C228.013 37.6123 229.253 36.3713 229.253 34.8405C229.253 33.3097 228.013 32.0687 226.482 32.0687C224.951 32.0687 223.71 33.3097 223.71 34.8405C223.71 36.3713 224.951 37.6123 226.482 37.6123Z" fill="#838383"/>
<path d="M236.183 37.6123C237.714 37.6123 238.955 36.3713 238.955 34.8405C238.955 33.3097 237.714 32.0687 236.183 32.0687C234.652 32.0687 233.411 33.3097 233.411 34.8405C233.411 36.3713 234.652 37.6123 236.183 37.6123Z" fill="#838383"/>
<path opacity="0.5" d="M216.78 90.2771C218.311 90.2771 219.552 89.0361 219.552 87.5052C219.552 85.9744 218.311 84.7334 216.78 84.7334C215.25 84.7334 214.009 85.9744 214.009 87.5052C214.009 89.0361 215.25 90.2771 216.78 90.2771Z" fill="#838383"/>
<path opacity="0.7" d="M226.482 90.2771C228.013 90.2771 229.253 89.0361 229.253 87.5052C229.253 85.9744 228.013 84.7334 226.482 84.7334C224.951 84.7334 223.71 85.9744 223.71 87.5052C223.71 89.0361 224.951 90.2771 226.482 90.2771Z" fill="#838383"/>
<path d="M236.183 90.2771C237.714 90.2771 238.955 89.0361 238.955 87.5052C238.955 85.9744 237.714 84.7334 236.183 84.7334C234.652 84.7334 233.411 85.9744 233.411 87.5052C233.411 89.0361 234.652 90.2771 236.183 90.2771Z" fill="#838383"/>
<path opacity="0.5" d="M216.78 142.942C218.311 142.942 219.552 141.701 219.552 140.17C219.552 138.639 218.311 137.398 216.78 137.398C215.25 137.398 214.009 138.639 214.009 140.17C214.009 141.701 215.25 142.942 216.78 142.942Z" fill="#838383"/>
<path opacity="0.7" d="M226.482 142.942C228.013 142.942 229.253 141.701 229.253 140.17C229.253 138.639 228.013 137.398 226.482 137.398C224.951 137.398 223.71 138.639 223.71 140.17C223.71 141.701 224.951 142.942 226.482 142.942Z" fill="#838383"/>
<path d="M236.183 142.942C237.714 142.942 238.955 141.701 238.955 140.17C238.955 138.639 237.714 137.398 236.183 137.398C234.652 137.398 233.411 138.639 233.411 140.17C233.411 141.701 234.652 142.942 236.183 142.942Z" fill="#838383"/>
<path d="M331.034 167.963L327.446 142.749C326.524 136.264 320.962 131.458 314.411 131.458H284.589C278.038 131.458 272.475 136.264 271.554 142.749L267.966 167.963C267.242 173.032 271.159 177.542 276.261 177.542C278.499 177.542 280.606 176.653 282.186 175.073L289.625 167.667H309.375L316.781 175.073C318.361 176.653 320.501 177.542 322.706 177.542C327.841 177.542 331.758 173.032 331.034 167.963ZM296.208 149.563C296.208 150.472 295.471 151.208 294.562 151.208H289.625V156.146C289.625 157.055 288.888 157.792 287.979 157.792V157.792C287.07 157.792 286.333 157.055 286.333 156.146V151.208H281.396C280.487 151.208 279.75 150.472 279.75 149.563V149.563C279.75 148.654 280.487 147.917 281.396 147.917H286.333V142.979C286.333 142.07 287.07 141.333 287.979 141.333V141.333C288.888 141.333 289.625 142.07 289.625 142.979V147.917H294.562C295.471 147.917 296.208 148.654 296.208 149.563V149.563ZM309.375 147.917C307.564 147.917 306.083 146.435 306.083 144.625C306.083 142.815 307.564 141.333 309.375 141.333C311.185 141.333 312.667 142.815 312.667 144.625C312.667 146.435 311.185 147.917 309.375 147.917ZM315.958 157.792C314.148 157.792 312.667 156.31 312.667 154.5C312.667 152.69 314.148 151.208 315.958 151.208C317.769 151.208 319.25 152.69 319.25 154.5C319.25 156.31 317.769 157.792 315.958 157.792Z" fill="#838383"/>
</svg>
