<svg fill="none" height="24" width="24" xmlns="http://www.w3.org/2000/svg"><clipPath id="a"><path d="M1.917 3H23v18H1.917z"/></clipPath><g clip-path="url(#a)"><path d="M8.573 20.926c7.904 0 12.226-6.867 12.226-12.823 0-.195-.004-.389-.013-.582a8.987 8.987 0 0 0 2.144-2.334c-.77.359-1.599.6-2.468.71a4.491 4.491 0 0 0 1.89-2.493c-.83.516-1.75.891-2.729 1.094-.784-.876-1.9-1.424-3.136-1.424-2.373 0-4.297 2.018-4.297 4.506 0 .354.037.698.111 1.028-3.571-.189-6.738-1.982-8.857-4.71a4.664 4.664 0 0 0-.581 2.266c0 1.564.758 2.944 1.912 3.752a4.115 4.115 0 0 1-1.946-.564l-.001.057c0 2.183 1.481 4.006 3.447 4.418a4.112 4.112 0 0 1-1.94.078c.547 1.79 2.133 3.094 4.014 3.13a8.369 8.369 0 0 1-6.362 1.867 11.755 11.755 0 0 0 6.587 2.024" fill="#fff"/></g></svg>