<svg fill="none" height="24" width="24" xmlns="http://www.w3.org/2000/svg"><g fill="#fff"><path d="M10.443 10.39c-.583 0-1.043.5-1.043 1.11s.47 1.11 1.043 1.11c.582 0 1.042-.5 1.042-1.11.01-.61-.46-1.11-1.042-1.11zm3.73 0c-.582 0-1.042.5-1.042 1.11s.47 1.11 1.043 1.11c.582 0 1.042-.5 1.042-1.11s-.46-1.11-1.042-1.11z"/><path d="M19.143 2H5.445C4.29 2 3.35 2.92 3.35 4.06v13.52c0 1.14.94 2.06 2.095 2.06h11.592l-.542-1.85 1.309 1.19 1.237 1.12 2.197 1.9V4.06c0-1.14-.94-2.06-2.095-2.06zm-3.946 13.06s-.368-.43-.674-.81c1.339-.37 1.85-1.19 1.85-1.19-.42.27-.818.46-1.176.59a6.84 6.84 0 0 1-1.482.43c-.981.18-1.88.13-2.647-.01a8.724 8.724 0 0 1-1.503-.43c-.235-.09-.49-.2-.746-.34-.031-.02-.062-.03-.092-.05a.14.14 0 0 1-.041-.03c-.184-.1-.286-.17-.286-.17s.49.8 1.788 1.18c-.306.38-.684.83-.684.83-2.26-.07-3.118-1.52-3.118-1.52 0-3.22 1.472-5.83 1.472-5.83C9.33 6.63 10.73 6.66 10.73 6.66l.102.12c-1.84.52-2.688 1.31-2.688 1.31s.225-.12.603-.29c1.094-.47 1.963-.6 2.32-.63.062-.01.113-.02.174-.02a8.84 8.84 0 0 1 2.065-.02c.971.11 2.014.39 3.077.96 0 0-.808-.75-2.545-1.27l.143-.16s1.4-.03 2.872 1.05c0 0 1.472 2.61 1.472 5.83 0 0-.869 1.45-3.128 1.52z"/></g></svg>