<svg fill="none" height="24" width="24" xmlns="http://www.w3.org/2000/svg"><path clip-rule="evenodd" d="M0 12c0 6.626 5.374 12 12 12s12-5.374 12-12S18.626 0 12 0 0 5.374 0 12zm13.5 1.25c0 .69.562 1.25 1.25 1.25S16 13.94 16 13.25 15.44 12 14.75 12s-1.25.562-1.25 1.25zm-1.498 4.222c.48 0 2.115-.067 2.97-.92a.327.327 0 0 0 0-.458.323.323 0 0 0-.46 0c-.537.538-1.689.73-2.51.73-.823 0-1.972-.192-2.51-.73a.323.323 0 1 0-.458.458c.852.853 2.488.92 2.968.92zM9.25 12C8.56 12 8 12.562 8 13.25s.56 1.25 1.25 1.25 1.25-.56 1.25-1.25S9.938 12 9.25 12zm9-1.75c.967 0 1.75.783 1.75 1.75 0 .715-.43 1.327-1.038 1.6.027.174.041.349.041.526 0 2.693-3.134 4.875-7 4.875s-7.001-2.182-7.001-4.875c0-.18.014-.357.04-.53a1.75 1.75 0 1 1 1.925-2.858c1.215-.876 2.895-1.436 4.764-1.484v-.023c-.002-.015-.003-.03 0-.046l.874-4.116a.308.308 0 0 1 .37-.24l2.908.619A1.243 1.243 0 0 1 17 4.75a1.25 1.25 0 1 1 0 2.5c-.67 0-1.212-.528-1.243-1.19l-2.604-.554-.797 3.75c1.836.066 3.485.622 4.68 1.486a1.737 1.737 0 0 1 1.215-.492z" fill="#fff" fill-rule="evenodd"/></svg>